<svg height="188px" width="188px" version="1.1" id="_x32_" xmlns="http://www.w3.org/2000/svg" xmlns:xlink="http://www.w3.org/1999/xlink" viewBox="-71.68 -71.68 655.36 655.36" xml:space="preserve" fill="#000000" stroke="#000000" stroke-width="6.144"><g id="SVGRepo_bgCarrier" stroke-width="0"></g><g id="SVGRepo_tracerCarrier" stroke-linecap="round" stroke-linejoin="round" stroke="#CCCCCC" stroke-width="2.048"></g><g id="SVGRepo_iconCarrier"> <style type="text/css"> .st0{fill:#637381;} </style> <g> <path class="st0" d="M124.305,228.745c-4.113-0.97-7.914-3.042-10.948-6.075l-10.499-10.493c-8.958-8.957-8.958-23.475,0-32.432 l10.499-10.499c4.301-4.294,10.138-6.72,16.212-6.72h71.012c6.083,0,11.919,2.426,16.22,6.72l10.493,10.499 c8.957,8.957,8.957,23.475,0,32.432l-10.493,10.493c-3.033,3.033-6.835,5.104-10.948,6.075h100.294 c-4.105-0.97-7.907-3.042-10.948-6.075l-10.493-10.493c-8.957-8.957-8.957-23.475,0-32.432l10.493-10.499 c4.308-4.294,10.137-6.72,16.22-6.72h71.012c6.082,0,11.912,2.426,16.22,6.72l10.485,10.499c8.957,8.957,8.957,23.475,0,32.432 L398.65,222.67c-3.041,3.033-6.842,5.104-10.948,6.075h84.661h1.651V119.211c0-20.687-16.762-37.457-37.45-37.457H75.444 c-20.687,0-37.458,16.77-37.458,37.457v109.534h1.651H124.305z"></path> <polygon class="st0" points="502.095,241.96 472.363,241.96 39.637,241.96 23.121,241.96 0,241.96 0,430.246 39.637,430.246 39.637,393.911 472.363,393.911 472.363,430.246 512,430.246 512,393.911 512,241.96 "></polygon> </g> </g></svg>